<svg width="64" height="64" viewBox="0 0 64 64" fill="none" xmlns="http://www.w3.org/2000/svg">
<path d="M22.4693 15.456H20.8319V17.7974H22.3626C22.7839 17.7974 23.1039 17.7014 23.3333 17.504C23.5573 17.312 23.6746 17.0347 23.6746 16.6827C23.6746 15.872 23.2746 15.4614 22.4693 15.456Z" fill="#801336"/>
<path d="M12.8746 5.22668V23.92H31.3813V5.22668H12.8746ZM25.0986 18.88C24.4959 19.36 23.6106 19.6054 22.4319 19.616H18.5066V9.84002H21.9839C23.2266 9.84002 24.1759 10.0694 24.8266 10.5334C25.4773 10.9974 25.8026 11.664 25.8026 12.5387C25.8026 13.0454 25.6853 13.4774 25.4559 13.8347C25.2266 14.192 24.8853 14.4587 24.4373 14.6294C24.9439 14.7627 25.3279 15.0134 25.5999 15.3814C25.8719 15.7494 26.0053 16.1974 26.0053 16.7254C25.9999 17.68 25.7013 18.4 25.0986 18.88Z" fill="#801336"/>
<path d="M23.1413 13.632C23.3599 13.4507 23.4666 13.1787 23.4666 12.816C23.4666 12.4054 23.3493 12.1067 23.1146 11.9254C22.8799 11.744 22.5013 11.6534 21.9786 11.6534H20.8373V13.9147H22.0533C22.5599 13.9094 22.9226 13.8187 23.1413 13.632Z" fill="#801336"/>
<path d="M32.5866 5.22668V23.92H51.0933V5.22668H32.5866ZM43.0239 19.6107H40.6986V9.84002H43.0239V19.6107Z" fill="#801336"/>
<path d="M12.8746 25.2V43.8934H31.3813V25.2H12.8746ZM21.3386 33.1254C21.6053 33.328 22.0693 33.5414 22.7413 33.7547C23.4079 33.9734 23.9573 34.208 24.3893 34.4587C25.4346 35.0667 25.9573 35.9041 25.9573 36.9761C25.9573 37.8294 25.6373 38.5014 25.0026 38.9867C24.3626 39.4774 23.4879 39.7174 22.3786 39.7174C21.5946 39.7174 20.8853 39.5734 20.2506 39.2907C19.6159 39.0081 19.1359 38.6187 18.8159 38.1227C18.4959 37.6267 18.3359 37.0614 18.3359 36.4161H20.6719C20.6719 36.9387 20.8053 37.3281 21.0719 37.5734C21.3386 37.8241 21.7759 37.9467 22.3786 37.9467C22.7626 37.9467 23.0666 37.8614 23.2906 37.6961C23.5146 37.5307 23.6266 37.2907 23.6266 36.9867C23.6266 36.6401 23.5039 36.3734 23.2639 36.1814C23.0239 35.9894 22.5973 35.7921 21.9893 35.5841C21.4826 35.4187 20.9813 35.2161 20.5013 34.9867C19.2479 34.3627 18.6186 33.5094 18.6186 32.4214C18.6079 31.904 18.7733 31.4027 19.0879 30.9867C19.4026 30.5707 19.8399 30.2507 20.4159 30.0214C20.9919 29.792 21.6319 29.6747 22.3413 29.6747C23.0346 29.6747 23.6586 29.8027 24.2133 30.048C24.7626 30.2987 25.1946 30.656 25.4986 31.12C25.8079 31.5894 25.9679 32.144 25.9573 32.7094H23.6319C23.6319 32.3094 23.5093 32.0054 23.2693 31.7814C23.0293 31.5627 22.7039 31.4507 22.2879 31.4507C21.8719 31.4507 21.5413 31.5414 21.3013 31.728C21.0613 31.9147 20.9386 32.1494 20.9386 32.4374C20.9386 32.6987 21.0719 32.9227 21.3386 33.1254Z" fill="#801336"/>
<path d="M32.5866 25.2V43.8934H51.0933V25.2H32.5866ZM46.1226 31.632H43.2213V39.5841H40.8906V31.632H38.0426V29.8134H46.1279L46.1226 31.632Z" fill="#801336"/>
<path d="M7.76718 56.2203L7.66875 57.0667H4.57422L5.27502 51.3737H6.29472L5.69628 56.2203H7.76718Z" fill="#801336"/>
<path d="M15.5224 52.1887L15.3216 53.8068H17.1208L17.0224 54.5903H15.2232L15.0185 56.2518H17.3177L17.2153 57.0667H13.8925L14.5933 51.3737H17.9122L17.8098 52.1887H15.5224Z" fill="#801336"/>
<path d="M26.6772 54.925L26.2913 52.9761C26.2756 52.8869 26.2572 52.7832 26.2362 52.6651C26.2152 52.547 26.1942 52.4184 26.1732 52.2793C26.1207 52.4184 26.0695 52.547 26.0197 52.6651C25.9698 52.7832 25.9252 52.8882 25.8858 52.9801L25.0236 54.925H26.6772ZM28.1614 57.0667H27.3701C27.2808 57.0667 27.2113 57.0457 27.1614 57.0037C27.1142 56.9591 27.08 56.9027 27.0591 56.8345L26.8228 55.6455H24.7007L24.1732 56.8345C24.1443 56.8948 24.0971 56.9486 24.0314 56.9959C23.9685 57.0431 23.895 57.0667 23.811 57.0667H23.0078L25.7598 51.3737H26.8031L28.1614 57.0667Z" fill="#801336"/>
<path d="M36.9805 54.2281H38.7521L38.4687 56.5156C38.18 56.7255 37.8689 56.8804 37.5356 56.9801C37.2022 57.0799 36.8217 57.1297 36.3938 57.1297C36.0447 57.1297 35.7272 57.0667 35.4411 56.9408C35.1576 56.8148 34.9135 56.6402 34.7088 56.4171C34.5067 56.1914 34.3505 55.925 34.2403 55.6179C34.13 55.3082 34.0749 54.9709 34.0749 54.6061C34.0749 54.2859 34.1103 53.9827 34.1812 53.6966C34.2521 53.4079 34.3518 53.1415 34.4804 52.8974C34.6117 52.6533 34.7691 52.4341 34.9529 52.2399C35.1366 52.043 35.3413 51.8764 35.5671 51.7399C35.7928 51.6008 36.0369 51.4945 36.2993 51.421C36.5644 51.3475 36.8413 51.3107 37.1301 51.3107C37.361 51.3107 37.5697 51.3317 37.7561 51.3737C37.945 51.4131 38.1156 51.4682 38.2679 51.5391C38.4201 51.61 38.5566 51.6926 38.6773 51.7871C38.7981 51.8816 38.9057 51.9814 39.0002 52.0863L38.6695 52.5115C38.617 52.585 38.5527 52.631 38.4765 52.6493C38.4004 52.6651 38.323 52.6467 38.2443 52.5942C38.1681 52.5444 38.092 52.4958 38.0159 52.4486C37.9398 52.3987 37.8558 52.3541 37.7639 52.3147C37.6747 52.2753 37.5723 52.2438 37.4568 52.2202C37.3414 52.1966 37.2062 52.1848 37.0513 52.1848C36.7679 52.1848 36.508 52.2425 36.2718 52.358C36.0356 52.4709 35.8321 52.6323 35.6615 52.8423C35.4909 53.0496 35.3584 53.3003 35.2639 53.5942C35.1694 53.8856 35.1222 54.2111 35.1222 54.5706C35.1222 54.8436 35.1563 55.0877 35.2245 55.3029C35.2954 55.5182 35.3938 55.7006 35.5198 55.8502C35.6458 55.9998 35.7967 56.1153 35.9726 56.1966C36.1511 56.2754 36.3492 56.3148 36.5671 56.3148C36.7823 56.3148 36.9713 56.2951 37.134 56.2557C37.2967 56.2137 37.4529 56.1547 37.6025 56.0785L37.7324 54.9958H37.1025C37.0369 54.9958 36.987 54.9788 36.9529 54.9447C36.9214 54.9079 36.9083 54.8633 36.9135 54.8108L36.9805 54.2281Z" fill="#801336"/>
<path d="M47.1321 56.2478C47.3158 56.2478 47.4838 56.2137 47.636 56.1455C47.7909 56.0746 47.926 55.9762 48.0415 55.8502C48.157 55.7216 48.2515 55.568 48.325 55.3895C48.4011 55.2111 48.4523 55.0129 48.4785 54.7951L48.8959 51.3737H49.9195L49.4982 54.7951C49.4562 55.131 49.367 55.442 49.2305 55.7281C49.094 56.0142 48.9182 56.261 48.703 56.4683C48.4903 56.6757 48.241 56.8384 47.9549 56.9565C47.6714 57.072 47.3604 57.1297 47.0218 57.1297C46.6832 57.1297 46.3853 57.072 46.1281 56.9565C45.8735 56.8384 45.6648 56.6757 45.5021 56.4683C45.3394 56.261 45.2252 56.0142 45.1596 55.7281C45.094 55.442 45.0822 55.131 45.1242 54.7951L45.5336 51.3737H46.5573L46.1399 54.7911C46.1137 55.009 46.115 55.2084 46.1439 55.3895C46.1754 55.568 46.2331 55.7216 46.3171 55.8502C46.4037 55.9762 46.5139 56.0746 46.6478 56.1455C46.7843 56.2137 46.9457 56.2478 47.1321 56.2478Z" fill="#801336"/>
<path d="M57.4937 52.1887L57.2929 53.8068H59.0921L58.9937 54.5903H57.1945L56.9897 56.2518H59.289L59.1866 57.0667H55.8637L56.5645 51.3737H59.8835L59.7811 52.1887H57.4937Z" fill="#801336"/>
</svg>
